<?xml version="1.0" encoding="UTF-8" standalone="no"?>
<!-- Created with Inkscape (http://www.inkscape.org/) -->

<svg
   xmlns:dc="http://purl.org/dc/elements/1.1/"
   xmlns:cc="http://creativecommons.org/ns#"
   xmlns:rdf="http://www.w3.org/1999/02/22-rdf-syntax-ns#"
   xmlns:svg="http://www.w3.org/2000/svg"
   xmlns="http://www.w3.org/2000/svg"
   xmlns:sodipodi="http://sodipodi.sourceforge.net/DTD/sodipodi-0.dtd"
   xmlns:inkscape="http://www.inkscape.org/namespaces/inkscape"
   width="210mm"
   height="232mm"
   viewBox="0 0 210 232"
   version="1.1"
   id="svg8"
   inkscape:version="0.92.4 (5da689c313, 2019-01-14)"
   sodipodi:docname="auths.svg">
  <title
     id="title1029">ud_at</title>
  <defs
     id="defs2" />
  <sodipodi:namedview
     id="base"
     pagecolor="#ffffff"
     bordercolor="#666666"
     borderopacity="1.0"
     inkscape:pageopacity="0.0"
     inkscape:pageshadow="2"
     inkscape:zoom="0.49497475"
     inkscape:cx="468.01196"
     inkscape:cy="510.94465"
     inkscape:document-units="mm"
     inkscape:current-layer="layer3"
     showgrid="false"
     inkscape:snap-global="false"
     inkscape:window-width="1366"
     inkscape:window-height="745"
     inkscape:window-x="-8"
     inkscape:window-y="-8"
     inkscape:window-maximized="1" />
  <metadata
     id="metadata5">
    <rdf:RDF>
      <cc:Work
         rdf:about="">
        <dc:format>image/svg+xml</dc:format>
        <dc:type
           rdf:resource="http://purl.org/dc/dcmitype/StillImage" />
        <dc:title>ud_at</dc:title>
      </cc:Work>
    </rdf:RDF>
  </metadata>
  <g
     inkscape:groupmode="layer"
     id="layer5"
     inkscape:label="Layer 5"
     transform="translate(0,-65)"
     sodipodi:insensitive="true">
    <rect
       style="display:inline;opacity:1;fill:#000000;fill-opacity:1;stroke:#000000;stroke-width:2.02778721;stroke-miterlimit:4;stroke-dasharray:none;stroke-opacity:1;paint-order:markers stroke fill"
       id="rect986"
       width="212.03886"
       height="66.896034"
       x="-0.79512596"
       y="229.40404" />
  </g>
  <g
     inkscape:groupmode="layer"
     id="layer3"
     inkscape:label="Layer 3"
     style="display:none"
     transform="translate(0,-65)"
     sodipodi:insensitive="true">
    <path
       style="fill:none;stroke:#000000;stroke-width:0.26458332px;stroke-linecap:butt;stroke-linejoin:miter;stroke-opacity:1"
       d="m -0.53453905,158.84731 c 0,0 73.76638905,-40.09045 88.19894205,22.45065 14.432557,62.54106 11.225321,48.10851 11.225321,48.10851 L 0,229.94101 Z"
       id="path840"
       inkscape:connector-curvature="0" />
    <path
       style="fill:none;stroke:#000000;stroke-width:0.26458332px;stroke-linecap:butt;stroke-linejoin:miter;stroke-opacity:1"
       d="m 210.90607,159.37282 c 0,0 -73.76638,-40.09046 -88.19894,22.45065 -14.43255,62.54106 -11.22532,48.10851 -11.22532,48.10851 l 98.88972,0.53454 z"
       id="path840-7"
       inkscape:connector-curvature="0" />
    <path
       style="fill:none;stroke:#000000;stroke-width:0.21368858px;stroke-linecap:butt;stroke-linejoin:miter;stroke-opacity:1"
       d="m 31.582797,154.19739 c 0.106769,8.30475 5.025963,15.99918 9.64882,22.21357 0,0 -6.515088,34.69752 -5.551095,44.13993 l 1.233091,9.01554 11.454108,0.18402 c 0.462728,-2.77115 1.718468,-9.1757 1.718468,-9.1757 1.176034,-9.39811 -5.447571,-44.13685 -5.447571,-44.13685 4.625388,-6.74446 9.239403,-14.10078 9.178438,-22.68479 0,0 -11.326896,3.99845 -22.234259,0.44428 z"
       id="path897-6"
       inkscape:connector-curvature="0"
       sodipodi:nodetypes="ccsccsccc" />
    <path
       style="fill:none;stroke:#000000;stroke-width:0.18093944px;stroke-linecap:butt;stroke-linejoin:miter;stroke-opacity:1"
       d="m 159.48554,164.43976 c 0.0879,7.23511 4.13623,13.93852 7.9407,19.35252 0,0 -5.36173,30.22857 -4.56838,38.45483 l 1.0148,7.85436 9.42639,0.16033 c 0.38081,-2.41424 1.41425,-7.9939 1.41425,-7.9939 0.96784,-8.18767 -4.4832,-38.45215 -4.4832,-38.45215 3.80656,-5.87579 7.60378,-12.28464 7.5536,-19.76305 0,0 -9.32171,3.48345 -18.29816,0.38706 z"
       id="path897-6-1"
       inkscape:connector-curvature="0"
       sodipodi:nodetypes="ccsccsccc" />
  </g>
  <g
     inkscape:groupmode="layer"
     id="layer2"
     inkscape:label="Layer 2"
     style="display:none"
     transform="translate(0,-65)"
     sodipodi:insensitive="true">
    <path
       style="fill:#ffffff;stroke:#000000;stroke-width:0.26458332px;stroke-linecap:butt;stroke-linejoin:miter;stroke-opacity:1"
       d="m 29.399648,294.08569 c 0,0 -8.018086,-64.14468 29.934185,-80.18085 37.952275,-16.03618 63.075607,-10.69078 86.595327,-1.06908 23.51972,9.6217 28.33057,52.38483 28.86511,67.35192 0.53454,14.96708 -2.13816,15.50162 -2.13816,15.50162 z"
       id="path872"
       inkscape:connector-curvature="0" />
    <path
       style="fill:none;stroke:#000000;stroke-width:0.26458332px;stroke-linecap:butt;stroke-linejoin:miter;stroke-opacity:1"
       d="m 89.268021,204.28313 c 0.136042,9.99212 6.404003,19.24992 12.294399,26.72696 0,0 -8.301458,41.74742 -7.073147,53.10835 l 1.571192,10.84733 14.594685,0.22141 c 0.5896,-3.3342 2.18964,-11.04003 2.18964,-11.04003 1.49848,-11.30763 -6.94121,-53.10464 -6.94121,-53.10464 5.8936,-8.11482 11.77269,-16.9658 11.69501,-27.29392 0,0 -14.43255,4.81086 -28.330569,0.53454 z"
       id="path897"
       inkscape:connector-curvature="0"
       sodipodi:nodetypes="ccsccsccc" />
  </g>
  <g
     inkscape:label="Layer 1"
     inkscape:groupmode="layer"
     id="layer1"
     style="display:none"
     transform="translate(0,-65)"
     sodipodi:insensitive="true">
    <path
       style="opacity:1;fill:#ffffff;fill-opacity:1;stroke:#000000;stroke-width:2.4000001;stroke-miterlimit:4;stroke-dasharray:none;stroke-opacity:1;paint-order:markers stroke fill"
       id="path817"
       sodipodi:type="arc"
       sodipodi:cx="42.757755"
       sodipodi:cy="112.33289"
       sodipodi:rx="37.952274"
       sodipodi:ry="43.56493"
       sodipodi:start="0.6482467"
       sodipodi:end="0.64816292"
       d="m 73.01117,138.63695 a 37.952274,43.56493 0 0 1 -53.167973,8.424 37.952274,43.56493 0 0 1 -7.339816,-61.030658 37.952274,43.56493 0 0 1 53.167666,-8.426559 37.952274,43.56493 0 0 1 7.342042,61.030307 L 42.757755,112.33289 Z" />
    <path
       style="opacity:1;fill:#ffffff;fill-opacity:1;stroke:#000000;stroke-width:2.4000001;stroke-miterlimit:4;stroke-dasharray:none;stroke-opacity:1;paint-order:markers stroke fill"
       id="path817-4"
       sodipodi:type="arc"
       sodipodi:cx="167.83989"
       sodipodi:cy="121.15276"
       sodipodi:rx="37.952274"
       sodipodi:ry="43.564934"
       sodipodi:start="0.6482467"
       sodipodi:end="0.64816292"
       d="m 198.0933,147.45682 a 37.952274,43.564934 0 0 1 -53.16797,8.424 37.952274,43.564934 0 0 1 -7.33981,-61.03066 37.952274,43.564934 0 0 1 53.16766,-8.42656 37.952274,43.564934 0 0 1 7.34204,61.03031 l -30.25533,-26.30115 z" />
    <path
       style="opacity:1;fill:#ffffff;fill-opacity:1;stroke:#000000;stroke-width:2.55588269;stroke-miterlimit:4;stroke-dasharray:none;stroke-opacity:1;paint-order:markers stroke fill"
       id="path817-2"
       sodipodi:type="arc"
       sodipodi:cx="104.22974"
       sodipodi:cy="158.83781"
       sodipodi:rx="39.47718"
       sodipodi:ry="47.499386"
       sodipodi:start="0.6482467"
       sodipodi:end="0.64816292"
       d="m 135.69872,187.51745 a 39.47718,47.499386 0 0 1 -55.30424,9.1848 39.47718,47.499386 0 0 1 -7.634726,-66.54249 39.47718,47.499386 0 0 1 55.303916,-9.18758 39.47718,47.499386 0 0 1 7.63705,66.5421 l -31.47098,-28.67647 z" />
  </g>
  <g
     inkscape:groupmode="layer"
     id="layer4"
     inkscape:label="Layer 4"
     style="display:inline"
     transform="translate(0,-65)"
     sodipodi:insensitive="true">
    <path
       style="opacity:1;fill:#000000;fill-opacity:1;stroke:#000000;stroke-width:4.84873247;stroke-miterlimit:4;stroke-dasharray:none;stroke-opacity:1;paint-order:markers stroke fill"
       d="M 0.25237612,208.45599 C 0.05760982,196.94198 -0.10174445,181.09964 -0.10174445,173.2508 v -14.27062 l 4.40994715,-2.02386 c 4.4744531,-2.05347 11.1299553,-4.62268 15.2017213,-5.86828 2.089402,-0.63917 2.369313,-0.59654 4.185433,0.63755 1.070456,0.72739 3.220287,1.88596 4.777405,2.57459 2.732712,1.20854 2.844342,1.34157 3.211391,3.82709 0.537882,3.64232 3.065372,9.35267 6.319078,14.27667 l 2.787261,4.21811 -1.961211,11.81806 c -3.044433,18.34547 -3.976394,28.1959 -3.211314,33.9423 0.345919,2.59814 0.628944,5.23785 0.628944,5.86602 v 1.14213 H 18.426704 0.60649669 Z"
       id="path932"
       inkscape:connector-curvature="0" />
    <path
       style="opacity:1;fill:#000000;fill-opacity:1;stroke:#000000;stroke-width:4.84873247;stroke-miterlimit:4;stroke-dasharray:none;stroke-opacity:1;paint-order:markers stroke fill"
       d="M 50.423196,213.75256 C 49.7573,205.75717 46.887251,185.74027 45.192714,177.273 c -0.05884,-0.29399 1.141592,-2.59596 2.667619,-5.11549 3.464282,-5.71965 4.741622,-8.67902 5.618244,-13.01648 l 0.688928,-3.40878 4.635809,-2.38542 4.635807,-2.38542 2.65e-4,7.27587 c 5.29e-4,10.84424 1.634477,17.83869 6.264682,26.81746 3.881618,7.52714 9.438296,13.54456 16.350252,17.70598 l 3.03534,1.82745 -4.906227,0.96624 c -9.175485,1.80703 -25.378693,7.6454 -31.176883,11.2337 l -2.216396,1.37166 z"
       id="path934"
       inkscape:connector-curvature="0" />
    <path
       style="opacity:1;fill:#000000;fill-opacity:1;stroke:#000000;stroke-width:4.84873247;stroke-miterlimit:4;stroke-dasharray:none;stroke-opacity:1;paint-order:markers stroke fill"
       d="m 160.79451,225.51639 c -3.36376,-5.19779 -8.68198,-10.06622 -13.55837,-12.41167 -5.12635,-2.46568 -17.06521,-6.39207 -23.21223,-7.63393 l -4.79736,-0.96919 3.17373,-1.75812 c 1.74555,-0.96697 4.87067,-3.35893 6.94469,-5.31546 8.99529,-8.4857 14.0543,-19.25011 15.52889,-33.04191 l 0.63487,-5.93788 2.96567,1.90058 c 1.63112,1.04532 4.62501,2.54747 6.65309,3.33809 l 3.68742,1.43751 0.99315,3.91079 c 0.98897,3.8943 3.53592,9.47986 5.92772,12.99971 l 1.25671,1.84941 -1.71941,11.12689 c -2.42575,15.69782 -3.17175,25.06655 -2.39216,30.04233 0.34023,2.17159 0.5512,4.00041 0.46881,4.06406 -0.0824,0.0636 -1.23224,-1.5569 -2.55522,-3.60121 z"
       id="path936"
       inkscape:connector-curvature="0" />
    <path
       style="opacity:1;fill:#000000;fill-opacity:1;stroke:#000000;stroke-width:4.84873247;stroke-miterlimit:4;stroke-dasharray:none;stroke-opacity:1;paint-order:markers stroke fill"
       d="m 173.85949,228.72239 c 1.26009,-5.91051 1.46408,-8.11153 1.15181,-12.42804 -0.44166,-6.1051 -1.58341,-15.02783 -3.16223,-24.71266 l -1.23648,-7.58487 1.7626,-2.82737 c 2.55738,-4.10226 4.97443,-10.15858 5.41177,-13.56005 l 0.38007,-2.95611 3.05681,-1.24083 c 4.09327,-1.66155 8.09877,-4.2593 11.54622,-7.48824 l 2.84317,-2.66297 2.74775,0.97592 c 1.51127,0.53675 4.86228,1.94457 7.44671,3.12848 l 4.69895,2.15257 -5.3e-4,10.74828 c -2.6e-4,5.91155 -0.15985,21.7531 -0.35444,35.20344 l -0.35381,24.45516 h -18.09733 -18.09734 z"
       id="path938"
       inkscape:connector-curvature="0" />
    <path
       style="opacity:1;fill:#1a1a1a;fill-opacity:1;stroke:#000000;stroke-width:4.84873247;stroke-miterlimit:4;stroke-dasharray:none;stroke-opacity:1;paint-order:markers stroke fill"
       d="m 58.339219,294.10103 c -15.337901,-0.16635 -28.086655,-0.50279 -28.330569,-0.74761 -0.243912,-0.24484 -0.43778,-6.61834 -0.430813,-14.16332 0.0098,-10.67545 0.226594,-15.0051 0.977193,-19.52043 2.51822,-15.14872 7.715134,-27.35756 15.178969,-35.65914 1.511718,-1.68139 2.574284,-2.48056 2.803977,-2.10891 0.243996,0.39479 1.878404,-0.31783 4.803076,-2.09419 4.985904,-3.0283 15.126232,-7.14685 23.530827,-9.55717 5.173107,-1.48357 10.635152,-2.7758 11.732853,-2.7758 0.250203,0 0.751536,1.26285 1.114076,2.80633 1.224409,5.21284 4.456125,11.4686 9.257884,17.92087 l 2.098738,2.82013 -1.959046,11.13602 c -4.475215,25.439 -5.625891,36.33347 -4.658471,44.10607 0.3697,2.97027 0.803643,6.06198 0.964319,6.87047 l 0.292148,1.46997 -4.744035,-0.10041 c -2.609218,-0.0552 -17.293225,-0.23651 -32.631126,-0.40288 z"
       id="path946"
       inkscape:connector-curvature="0" />
    <path
       style="opacity:1;fill:#1a1a1a;fill-opacity:1;stroke:#000000;stroke-width:4.84873247;stroke-miterlimit:4;stroke-dasharray:none;stroke-opacity:1;paint-order:markers stroke fill"
       d="m 122.43382,294.73852 -11.36646,-0.1555 0.2764,-1.19205 c 2.22047,-9.57638 2.36597,-14.41067 0.81134,-26.95677 -0.98188,-7.92391 -3.16711,-21.44116 -5.03454,-31.14228 l -0.76759,-3.98762 2.85607,-4.29774 c 3.97891,-5.98736 6.50932,-11.16982 7.6533,-15.67452 0.5367,-2.1134 1.08714,-3.95385 1.22318,-4.0899 0.45422,-0.45421 9.7562,1.81093 16.51658,4.02198 13.18096,4.31097 18.44138,7.80136 24.09613,15.98828 1.31993,1.91098 3.03705,3.78058 3.81584,4.15467 2.70917,1.30134 7.74127,16.69895 9.99727,30.59037 2.09602,12.90639 2.48341,27.96701 0.82841,32.20598 -0.33982,0.87038 -1.72754,0.92692 -19.95234,0.81301 -10.77292,-0.0673 -24.70203,-0.19237 -30.95359,-0.27791 z"
       id="path948"
       inkscape:connector-curvature="0" />
    <path
       style="opacity:1;fill:#e9c6af;fill-opacity:1;stroke:#000000;stroke-width:4.84873247;stroke-miterlimit:4;stroke-dasharray:none;stroke-opacity:1;paint-order:markers stroke fill"
       d="m 96.542626,205.14927 c -3.024367,-0.8466 -10.054645,-5.01614 -14.078392,-8.34966 -6.780628,-5.61748 -12.034853,-14.34916 -15.002999,-24.93259 -0.635857,-2.26726 -0.954376,-6.21298 -1.139735,-14.11873 l -0.257252,-10.97209 1.691934,-5.06408 c 4.648748,-13.91405 13.551439,-23.73232 25.557289,-28.18562 4.435409,-1.64521 13.046589,-2.2373 17.691159,-1.2164 7.01632,1.54222 13.22236,5.20628 18.92103,11.17104 5.73459,6.00234 9.43861,12.81211 11.95919,21.98679 1.98371,7.22049 0.69275,22.31578 -2.72666,31.88284 -4.22341,11.8166 -11.40716,19.73014 -23.76463,26.17888 -3.8794,2.02446 -4.12161,2.0769 -10.15624,2.19845 -3.85965,0.0777 -7.12599,-0.13971 -8.694694,-0.57883 z"
       id="path950"
       inkscape:connector-curvature="0" />
    <path
       style="opacity:1;fill:#e9c6af;fill-opacity:1;stroke:#000000;stroke-width:4.84873247;stroke-miterlimit:4;stroke-dasharray:none;stroke-opacity:1;paint-order:markers stroke fill"
       d="m 164.53628,164.22107 c -1.32298,-0.17728 -3.24732,-0.72326 -4.27631,-1.2133 -1.02899,-0.49004 -3.464,-1.60326 -5.41114,-2.47382 -1.94714,-0.87056 -4.89378,-2.44868 -6.5481,-3.50694 l -3.00785,-1.9241 v -3.39564 c 0,-8.84367 -6.74067,-23.85955 -13.58072,-30.25315 -1.67731,-1.56784 -1.80371,-3.94011 -0.5374,-10.08566 3.30631,-16.045916 14.56233,-28.841634 28.54809,-32.45321 4.36637,-1.127535 12.03465,-1.13402 16.30602,-0.01378 18.80038,4.930683 31.84608,26.24813 29.15363,47.63883 -0.76061,6.04279 -2.13569,10.869 -4.40289,15.45313 -2.05842,4.16201 -4.81816,8.28301 -5.54779,8.28432 -0.31625,5.3e-4 -1.15815,0.62617 -1.87089,1.39022 -2.84998,3.05514 -8.15279,6.77985 -12.62014,8.8644 -2.59156,1.20928 -4.84694,2.4046 -5.01197,2.65628 -0.25222,0.38465 -7.70305,1.62841 -8.51984,1.42221 -0.147,-0.0371 -1.34971,-0.21252 -2.6727,-0.38979 z"
       id="path952"
       inkscape:connector-curvature="0" />
    <path
       style="opacity:1;fill:#e9c6af;fill-opacity:1;stroke:#000000;stroke-width:4.84873247;stroke-miterlimit:4;stroke-dasharray:none;stroke-opacity:1;paint-order:markers stroke fill"
       d="m 36.364799,155.09161 c -1.258147,-0.26738 -2.941945,-0.93764 -3.741775,-1.48947 -2.094463,-1.44503 -9.722108,-5.46151 -10.371885,-5.46151 -2.360276,0 -9.53405,-8.79515 -12.6447853,-15.50268 -3.4004482,-7.33222 -4.0954383,-10.77906 -4.0954383,-20.3115 0,-9.53245 0.6949901,-12.979289 4.0954383,-20.311515 C 19.273103,71.170975 41.820258,63.113633 60.19906,73.935363 c 4.441442,2.615192 10.749373,9.119349 13.668293,14.093489 4.41611,7.525507 7.366595,19.705488 6.521291,26.920728 -0.307581,2.62537 -0.647316,3.21763 -3.705074,6.45903 -1.851541,1.96275 -4.532103,5.43885 -5.956805,7.72469 -2.725449,4.37281 -7.166224,15.11849 -7.199061,17.42012 -0.01619,1.13423 -0.645396,1.67264 -3.894709,3.3327 -2.131476,1.08897 -5.260507,2.73125 -6.953406,3.64953 -2.771373,1.50327 -3.623374,1.68815 -8.552625,1.85584 -3.011045,0.10244 -6.504019,-0.0325 -7.762165,-0.29988 z"
       id="path954"
       inkscape:connector-curvature="0" />
    <path
       style="opacity:1;fill:#c83737;fill-opacity:1;stroke:#000000;stroke-width:4.84873247;stroke-miterlimit:4;stroke-dasharray:none;stroke-opacity:1;paint-order:markers stroke fill"
       d="M 38.561343,224.71422 C 37.6234,217.08241 38.402709,207.6146 41.520334,188.76559 l 1.45881,-8.81989 1.440211,9.08716 c 2.825528,17.82795 4.124579,30.20146 3.170743,30.20146 -1.001773,0 -3.97828,2.83085 -6.317247,6.00811 l -2.267963,3.08081 z"
       id="path968"
       inkscape:connector-curvature="0" />
    <path
       style="opacity:1;fill:#ff0000;fill-opacity:1;stroke:#000000;stroke-width:4.84873247;stroke-miterlimit:4;stroke-dasharray:none;stroke-opacity:1;paint-order:markers stroke fill"
       d="m 40.690628,171.59487 c -2.962429,-4.69136 -4.706403,-8.24 -5.707103,-11.61282 -0.693192,-2.33638 -0.714062,-2.80697 -0.114278,-2.57681 1.688708,0.64802 8.340566,0.89564 12.068444,0.44926 2.204974,-0.26403 4.073607,-0.42844 4.152522,-0.36536 0.455771,0.36433 -2.225395,7.23094 -4.311907,11.04303 -3.945085,7.20772 -3.584725,7.02643 -6.087678,3.0627 z"
       id="path972"
       inkscape:connector-curvature="0" />
    <path
       style="opacity:1;fill:#d4aa00;fill-opacity:1;stroke:#000000;stroke-width:4.84873247;stroke-miterlimit:4;stroke-dasharray:none;stroke-opacity:1;paint-order:markers stroke fill"
       d="m 166.38422,177.80199 c -1.83665,-3.28423 -4.81269,-10.83862 -4.42328,-11.22803 0.0939,-0.0939 1.37328,0.0565 2.84303,0.33432 1.75068,0.33088 3.94177,0.31009 6.35334,-0.0603 2.02459,-0.31095 3.8141,-0.43233 3.9767,-0.26973 0.82937,0.82937 -4.82285,14.11517 -6.20041,14.57436 -0.3132,0.1044 -1.46042,-1.40339 -2.54938,-3.35063 z"
       id="path976"
       inkscape:connector-curvature="0" />
    <path
       style="opacity:1;fill:#ffcc00;fill-opacity:1;stroke:#000000;stroke-width:4.84873247;stroke-miterlimit:4;stroke-dasharray:none;stroke-opacity:1;paint-order:markers stroke fill"
       d="m 165.70658,228.72239 c 0.0779,-0.6615 -0.0407,-3.00679 -0.26364,-5.21176 -0.22293,-2.20497 -0.16471,-6.53474 0.12937,-9.6217 0.81646,-8.57016 2.82885,-22.45064 3.2549,-22.45064 0.20854,0 0.52598,1.0223 0.70543,2.27179 2.83881,19.76662 3.32263,27.59452 2.04839,33.14142 l -0.70607,3.0736 h -2.65504 c -2.43898,0 -2.64349,-0.0979 -2.51334,-1.20271 z"
       id="path980"
       inkscape:connector-curvature="0" />
    <path
       style="opacity:1;fill:#44aa00;fill-opacity:1;stroke:#000000;stroke-width:4.84873247;stroke-miterlimit:4;stroke-dasharray:none;stroke-opacity:1;paint-order:markers stroke fill"
       d="m 102.13081,227.92058 c -4.368606,-5.62118 -7.425165,-11.16793 -9.47468,-17.19376 -1.435944,-4.22184 -1.212662,-4.58077 2.122807,-3.41243 4.300813,1.50648 14.345703,1.44662 19.340053,-0.11526 l 1.16572,-0.36455 -0.81135,3.10699 c -1.168,4.47277 -3.35972,9.03858 -7.13999,14.87409 -1.82046,2.81019 -3.38525,5.10944 -3.47731,5.10944 -0.0921,0 -0.86843,-0.90204 -1.72525,-2.00452 z"
       id="path982"
       inkscape:connector-curvature="0" />
    <path
       style="opacity:1;fill:#66ff00;fill-opacity:1;stroke:#000000;stroke-width:4.84873247;stroke-miterlimit:4;stroke-dasharray:none;stroke-opacity:1;paint-order:markers stroke fill"
       d="m 98.25344,294.43671 c 0,-0.0922 -0.370837,-2.91857 -0.824087,-6.28084 -0.970002,-7.19565 -0.746352,-12.15341 1.155914,-25.62389 1.595593,-11.29886 4.376873,-27.67415 4.940333,-29.08714 0.77205,-1.93605 6.17193,31.69382 6.82139,42.48291 0.32036,5.32182 -0.0589,9.50485 -1.44983,15.99047 l -0.57606,2.6861 h -5.03383 c -2.76861,0 -5.03383,-0.0754 -5.03383,-0.16761 z"
       id="path984"
       inkscape:connector-curvature="0" />
  </g>
</svg>
